Coordinates
version=1
nRows=8
nColumns=63
inDegrees=yes

Units are S.I. units (second, meters, Newtons, ...)
If the header above contains a line with 'inDegrees', this indicates whether rotational values are in degrees (yes) or radians (no).

endheader
time	pelvis_tilt	pelvis_list	pelvis_rotation	pelvis_tx	pelvis_ty	pelvis_tz	hip_flexion_r	hip_adduction_r	hip_rotation_r	knee_angle_r	knee_angle_r_beta	ankle_angle_r	subtalar_angle_r	mtp_angle_r	hip_flexion_l	hip_adduction_l	hip_rotation_l	knee_angle_l	knee_angle_l_beta	ankle_angle_l	subtalar_angle_l	mtp_angle_l	L5_S1_Flex_Ext	L5_S1_Lat_Bending	L5_S1_axial_rotation	L4_L5_Flex_Ext	L4_L5_Lat_Bending	L4_L5_axial_rotation	L3_L4_Flex_Ext	L3_L4_Lat_Bending	L3_L4_axial_rotation	L2_L3_Flex_Ext	L2_L3_Lat_Bending	L2_L3_axial_rotation	L1_L2_Flex_Ext	L1_L2_Lat_Bending	L1_L2_axial_rotation	L1_T12_Flex_Ext	L1_T12_Lat_Bending	L1_T12_axial_rotation	Abs_r3	Abs_r2	Abs_r1	Abs_t1	Abs_t2	neck_flexion	neck_bending	neck_rotation	arm_flex_r	arm_add_r	arm_rot_r	elbow_flex_r	pro_sup_r	wrist_flex_r	wrist_dev_r	arm_flex_l	arm_add_l	arm_rot_l	elbow_flex_l	pro_sup_l	wrist_flex_l	wrist_dev_l
0.000000	-4.294176	-3.453050	84.879508	0.264085	0.833719	0.758135	8.399235	-0.877530	-3.606710	9.589742	0.167373	29.209428	6.673480	0.000000	9.061131	-0.584387	-18.155170	9.785680	0.170792	36.550793	13.463168	0.000000	0.483798	-0.112167	1.409022	0.898461	-0.149182	1.497086	0.794831	-0.272723	1.497086	0.552932	-0.272723	1.232895	0.449255	-0.228731	1.144831	0.276442	-0.173747	1.056767	3.455719	-1.268858	7.836560	0.000000	0.000000	28.309212	4.394733	0.542981	12.917182	-7.969692	58.583983	43.747336	68.939342	9.685287	2.505118	25.047181	-7.422147	79.208414	44.480494	68.025057	15.210046	10.384928
0.016667	-3.812960	-3.297019	85.554357	0.262220	0.834253	0.756388	8.195096	-0.588008	-4.296533	9.376490	0.163651	30.146606	6.389579	0.000000	8.703485	-0.823262	-16.556935	9.626549	0.168015	36.516418	12.593912	0.000000	0.493684	-0.040338	1.226029	0.916820	-0.053650	1.302656	0.811073	-0.098079	1.302656	0.564231	-0.098079	1.072776	0.458435	-0.082258	0.996149	0.282091	-0.062484	0.919522	3.526334	-0.456317	6.818808	0.000000	0.000000	28.298349	4.179764	0.800236	12.894978	-7.759239	59.776751	42.686017	68.753686	10.577705	3.408865	24.571649	-7.230087	79.628947	44.422794	67.164643	12.605096	8.622951
0.033333	-3.442172	-3.163323	86.156814	0.260611	0.834700	0.754884	8.000627	-0.378442	-4.850643	9.195657	0.160494	30.870880	6.138759	0.000000	8.409901	-0.984555	-15.208376	9.500364	0.165813	36.483455	11.876629	0.000000	0.500870	0.015677	1.063257	0.930165	0.020850	1.129710	0.822879	0.038116	1.129710	0.572444	0.038116	0.930350	0.465108	0.031968	0.863896	0.286197	0.024283	0.797443	3.577663	0.177337	5.913515	0.000000	0.000000	28.288423	4.022745	1.050227	12.896082	-7.572607	60.896878	41.793790	68.662923	11.286527	4.026129	24.071320	-7.101516	79.702674	44.404590	66.626733	10.539587	7.254609
0.050000	-3.171851	-3.050189	86.688683	0.259246	0.835069	0.753610	7.816775	-0.240843	-5.278625	9.045435	0.157873	31.402414	5.918950	0.000000	8.175020	-1.076341	-14.092159	9.404345	0.164137	36.452107	11.298511	0.000000	0.505680	0.057274	0.920243	0.939099	0.076174	0.977758	0.830782	0.139256	0.977758	0.577942	0.139256	0.805212	0.469575	0.116793	0.747697	0.288946	0.088717	0.690182	3.612023	0.647894	5.118113	0.000000	0.000000	28.279455	3.916698	1.287749	12.915535	-7.408573	61.937300	41.058767	68.649681	11.825854	4.390569	23.556757	-7.029359	79.480150	44.420971	66.371707	8.960845	6.241755
0.066667	-2.992039	-2.955844	87.151772	0.258111	0.835364	0.752550	7.644487	-0.167223	-5.590064	8.924016	0.155753	31.761372	5.728081	0.000000	7.993487	-1.106697	-13.190953	9.335712	0.162939	36.422579	10.846753	0.000000	0.508440	0.085849	0.796525	0.944223	0.114180	0.846308	0.835316	0.208734	0.846308	0.581096	0.208734	0.696959	0.472137	0.175064	0.647176	0.290522	0.132981	0.597394	3.631734	0.971144	4.430032	0.000000	0.000000	28.271468	3.854644	1.507601	12.948380	-7.265917	62.890953	40.469059	68.696587	12.209790	4.535846	23.038521	-7.006541	79.011934	44.467026	66.359946	7.816193	5.546239
0.083333	-2.892776	-2.878516	87.547886	0.257192	0.835591	0.751690	7.484709	-0.149593	-5.794547	8.829592	0.154105	31.967919	5.564082	0.000000	7.859943	-1.083697	-12.487423	9.291686	0.162171	36.395076	10.508551	0.000000	0.509473	0.102799	0.691642	0.946142	0.136722	0.734869	0.837013	0.249945	0.734869	0.582276	0.249945	0.605186	0.473096	0.209627	0.561959	0.291113	0.159235	0.518731	3.639112	1.162878	3.846703	0.000000	0.000000	28.264480	3.829606	1.704580	12.989660	-7.143417	63.750776	40.012780	68.786267	12.452439	4.495620	22.527177	-7.025984	78.348582	44.537846	66.551828	7.052956	5.129913
0.100000	-2.864103	-2.816432	87.878834	0.256475	0.835758	0.751018	7.338388	-0.179965	-5.901660	8.760355	0.152897	32.042219	5.424884	0.000000	7.769034	-1.015418	-11.964236	9.269485	0.161783	36.369802	10.271096	0.000000	0.509104	0.109518	0.605131	0.945456	0.145659	0.642952	0.836406	0.266281	0.642952	0.581855	0.266281	0.529490	0.472754	0.223328	0.491669	0.290902	0.169643	0.453848	3.636476	1.238886	3.365559	0.000000	0.000000	28.258515	3.834603	1.873483	13.034418	-7.039851	64.509704	39.678040	68.901348	12.567903	4.303550	22.033287	-7.080615	77.540652	44.628519	66.907734	6.618458	4.954627
0.116667	-2.896061	-2.767819	88.146420	0.255948	0.835870	0.750518	7.206470	-0.250350	-5.920988	8.714497	0.152097	32.004436	5.308415	0.000000	7.715401	-0.909936	-11.604060	9.266332	0.161728	36.346962	10.121586	0.000000	0.507657	0.107402	0.536532	0.942770	0.142845	0.570065	0.834030	0.261138	0.570065	0.580201	0.261138	0.469465	0.471411	0.219015	0.435932	0.290075	0.166366	0.402399	3.626145	1.214958	2.984029	0.000000	0.000000	28.253591	3.862659	2.009107	13.077697	-6.953999	65.160673	39.452953	69.024456	12.570285	3.993299	21.567415	-7.163356	76.638700	44.734136	67.388044	6.460024	4.982233
